<mxfile host="app.diagrams.net" agent="Mozilla/5.0 (Windows NT 10.0; Win64; x64) AppleWebKit/537.36 (KHTML, like Gecko) Chrome/129.0.0.0 Safari/537.36 Edg/129.0.0.0" version="24.7.16">
  <diagram name="Page-1" id="yfbGDGS_SLToQhaMDQXz">
    <mxGraphModel dx="1958" dy="1107" grid="1" gridSize="10" guides="1" tooltips="1" connect="1" arrows="1" fold="1" page="1" pageScale="1" pageWidth="827" pageHeight="1169" math="0" shadow="0">
      <root>
        <mxCell id="0" />
        <mxCell id="1" parent="0" />
        <mxCell id="XFiTCEWa5XVXZvAyRQ3R-25" value="Legend" style="rounded=1;whiteSpace=wrap;html=1;verticalAlign=top;" parent="1" vertex="1">
          <mxGeometry x="40" y="370" width="230" height="450" as="geometry" />
        </mxCell>
        <mxCell id="XFiTCEWa5XVXZvAyRQ3R-11" style="edgeStyle=orthogonalEdgeStyle;rounded=0;orthogonalLoop=1;jettySize=auto;html=1;" parent="1" source="XFiTCEWa5XVXZvAyRQ3R-9" target="XFiTCEWa5XVXZvAyRQ3R-10" edge="1">
          <mxGeometry relative="1" as="geometry" />
        </mxCell>
        <mxCell id="XFiTCEWa5XVXZvAyRQ3R-9" value="Frontend (React Web App)" style="image;aspect=fixed;html=1;points=[];align=center;fontSize=12;image=img/lib/azure2/preview/Static_Apps.svg;horizontal=1;verticalAlign=top;labelPosition=center;verticalLabelPosition=bottom;" parent="1" vertex="1">
          <mxGeometry x="80" y="210" width="68" height="54" as="geometry" />
        </mxCell>
        <mxCell id="XFiTCEWa5XVXZvAyRQ3R-13" style="edgeStyle=orthogonalEdgeStyle;rounded=0;orthogonalLoop=1;jettySize=auto;html=1;" parent="1" source="XFiTCEWa5XVXZvAyRQ3R-10" target="XFiTCEWa5XVXZvAyRQ3R-12" edge="1">
          <mxGeometry relative="1" as="geometry" />
        </mxCell>
        <mxCell id="XFiTCEWa5XVXZvAyRQ3R-10" value="API Gateway" style="image;aspect=fixed;html=1;points=[];align=center;fontSize=12;image=img/lib/azure2/app_services/API_Management_Services.svg;" parent="1" vertex="1">
          <mxGeometry x="270" y="207" width="65" height="60" as="geometry" />
        </mxCell>
        <mxCell id="XFiTCEWa5XVXZvAyRQ3R-15" style="edgeStyle=orthogonalEdgeStyle;rounded=0;orthogonalLoop=1;jettySize=auto;html=1;" parent="1" source="XFiTCEWa5XVXZvAyRQ3R-12" target="XFiTCEWa5XVXZvAyRQ3R-14" edge="1">
          <mxGeometry relative="1" as="geometry" />
        </mxCell>
        <mxCell id="XFiTCEWa5XVXZvAyRQ3R-12" value="API Backend" style="image;aspect=fixed;html=1;points=[];align=center;fontSize=12;image=img/lib/azure2/compute/Function_Apps.svg;" parent="1" vertex="1">
          <mxGeometry x="450" y="207" width="68" height="60" as="geometry" />
        </mxCell>
        <mxCell id="XFiTCEWa5XVXZvAyRQ3R-14" value="Database" style="image;aspect=fixed;points=[];align=left;fontSize=12;image=img/lib/azure2/databases/SQL_Database.svg;verticalAlign=middle;html=1;labelPosition=right;verticalLabelPosition=middle;" parent="1" vertex="1">
          <mxGeometry x="630" y="205" width="48" height="64" as="geometry" />
        </mxCell>
        <mxCell id="XFiTCEWa5XVXZvAyRQ3R-54" style="edgeStyle=orthogonalEdgeStyle;rounded=0;orthogonalLoop=1;jettySize=auto;html=1;" parent="1" source="XFiTCEWa5XVXZvAyRQ3R-16" target="XFiTCEWa5XVXZvAyRQ3R-14" edge="1">
          <mxGeometry relative="1" as="geometry" />
        </mxCell>
        <mxCell id="XFiTCEWa5XVXZvAyRQ3R-55" style="edgeStyle=orthogonalEdgeStyle;rounded=0;orthogonalLoop=1;jettySize=auto;html=1;" parent="1" source="XFiTCEWa5XVXZvAyRQ3R-16" target="XFiTCEWa5XVXZvAyRQ3R-17" edge="1">
          <mxGeometry relative="1" as="geometry" />
        </mxCell>
        <mxCell id="XFiTCEWa5XVXZvAyRQ3R-16" value="Fetch/process New Data" style="image;aspect=fixed;html=1;points=[];align=left;fontSize=12;image=img/lib/azure2/compute/Function_Apps.svg;labelPosition=right;verticalLabelPosition=middle;verticalAlign=middle;" parent="1" vertex="1">
          <mxGeometry x="620" y="340" width="68" height="60" as="geometry" />
        </mxCell>
        <mxCell id="XFiTCEWa5XVXZvAyRQ3R-56" style="edgeStyle=orthogonalEdgeStyle;rounded=0;orthogonalLoop=1;jettySize=auto;html=1;" parent="1" source="XFiTCEWa5XVXZvAyRQ3R-17" target="XFiTCEWa5XVXZvAyRQ3R-47" edge="1">
          <mxGeometry relative="1" as="geometry" />
        </mxCell>
        <mxCell id="XFiTCEWa5XVXZvAyRQ3R-17" value="Every 5 Minutes" style="html=1;verticalLabelPosition=middle;align=left;labelBackgroundColor=#ffffff;verticalAlign=middle;strokeWidth=2;strokeColor=#0080F0;shadow=0;dashed=0;shape=mxgraph.ios7.icons.clock;labelPosition=right;" parent="1" vertex="1">
          <mxGeometry x="624" y="474" width="60" height="60" as="geometry" />
        </mxCell>
        <mxCell id="XFiTCEWa5XVXZvAyRQ3R-19" value="Azure Static Web Apps" style="image;aspect=fixed;html=1;points=[];align=left;fontSize=12;image=img/lib/azure2/preview/Static_Apps.svg;labelPosition=right;verticalLabelPosition=middle;verticalAlign=middle;" parent="1" vertex="1">
          <mxGeometry x="50" y="420" width="68" height="54" as="geometry" />
        </mxCell>
        <mxCell id="XFiTCEWa5XVXZvAyRQ3R-21" value="Azure API Management" style="image;aspect=fixed;html=1;points=[];align=left;fontSize=12;image=img/lib/azure2/app_services/API_Management_Services.svg;labelPosition=right;verticalLabelPosition=middle;verticalAlign=middle;" parent="1" vertex="1">
          <mxGeometry x="51.5" y="490" width="65" height="60" as="geometry" />
        </mxCell>
        <mxCell id="XFiTCEWa5XVXZvAyRQ3R-23" value="Azure Functions" style="image;aspect=fixed;html=1;points=[];align=left;fontSize=12;image=img/lib/azure2/compute/Function_Apps.svg;labelPosition=right;verticalLabelPosition=middle;verticalAlign=middle;" parent="1" vertex="1">
          <mxGeometry x="50" y="570" width="68" height="60" as="geometry" />
        </mxCell>
        <mxCell id="XFiTCEWa5XVXZvAyRQ3R-24" value="Azure SQL Database" style="image;aspect=fixed;points=[];align=left;fontSize=12;image=img/lib/azure2/databases/SQL_Database.svg;verticalAlign=middle;html=1;labelPosition=right;verticalLabelPosition=middle;" parent="1" vertex="1">
          <mxGeometry x="60" y="650" width="48" height="64" as="geometry" />
        </mxCell>
        <mxCell id="XFiTCEWa5XVXZvAyRQ3R-26" value="Timer Trigger" style="html=1;verticalLabelPosition=middle;align=left;labelBackgroundColor=#ffffff;verticalAlign=middle;strokeWidth=2;strokeColor=#0080F0;shadow=0;dashed=0;shape=mxgraph.ios7.icons.clock;labelPosition=right;" parent="1" vertex="1">
          <mxGeometry x="58.75" y="730" width="50.5" height="50" as="geometry" />
        </mxCell>
        <mxCell id="XFiTCEWa5XVXZvAyRQ3R-47" value="Seek API" style="shape=image;verticalLabelPosition=middle;labelBackgroundColor=default;verticalAlign=middle;aspect=fixed;imageAspect=0;image=data:image/png,iVBORw0KGgoAAAANSUhEUgAAAgAAAAIACAYAAAD0eNT6AAAAAXNSR0IArs4c6QAAQABJREFUeAHsnQWYVVXXx9c0M8TQDF3SINKghJSglIpIiIAgL4iBiaifiYodqFiooBKCKCDdoYDSXdIwQw8N099aB0aG4cbJe8+957+eZ56595ydv33u3uvsWCskPnRoBkFAAARAAARAAAQcRSDUUbVFZUEABEAABEAABBQCUADwIIAACIAACICAAwlAAXBgo6PKIAACIAACIAAFAM8ACIAACIAACDiQABQABzY6qgwCIAACIAACUADwDIAACIAACICAAwlAAXBgo6PKIAACIAACIAAFAM8ACIAACIAACDiQABQABzY6qgwCIAACIAACUADwDIAACIAACICAAwlAAXBgo6PKIAACIAACIAAFAM8ACIAACIAACDiQABQABzY6qgwCIAACIAACUADwDIAACIAACICAAwlAAXBgo6PKIAACIAACIAAFAM8ACIAACIAACDiQABQABzY6qgwCIAACIAACUADwDIAACIAACICAAwlAAXBgo6PKIAACIAACIAAFAM8ACIAACIAACDiQABQABzY6qgwCIAACIAACUADwDIAACIAACICAAwlAAXBgo6PKIAACIAACIAAFAM8ACIAACIAACDiQABQABzY6qgwCIAACIAACUADwDIAACIAACICAAwlAAXBgo6PKIAACIAACIAAFAM8ACIAACIAACDiQABQABzY6qgwCIAACIAACUADwDIAACIAACICAAwlAAXBgo6PKIAACIAACIAAFAM8ACIAACIAACDiQABQABzY6qgwCIAACIAACUADwDIAACIAACICAAwlAAXBgo6PKIAACIAACIAAFAM8ACIAACIAACDiQABQABzY6qgwCIAACIAACUADwDIAACIAACICAAwlAAXBgo6PKIAACIAACIAAFAM8ACIAACIAACDiQABQABzY6qgwCIAACIAACUADwDIAACIAACICAAwlAAXBgo6PKIAACIAACIAAFAM8ACIAACIAACDiQABQABzY6qgwCIAACIAACUADwDIAACIAACICAAwlAAXBgo6PKIAACIAACIAAFAM8ACIAACIAACDiQABQABzY6qgwCIAACIAACUADwDIAACIAACICAAwlAAXBgo6PKIAACIAACIAAFAM8ACIAACIAACDiQABQABzY6qgwCIAACIAACUADwDIAACIAACICAAwlAAXBgo6PKIAACIAACIAAFAM8ACIAACIAACDiQABQABzY6qgwCIAACIAACUADwDIAACIAACICAAwlAAXBgo6PKIAACIAACIAAFAM8ACIAACIAACDiQABQABzY6qgwCIAACIAACUADwDIAACIAACICAAwlAAXBgo6PKIAACIAACIAAFAM8ACIAACIAACDiQQLgD64wqg0DAEkgJCaHT/KtN5L/TEZmfQ/g7fw7j68q1EDrHn1NYvU/m8MkhVz6n8P8kvpbK1+ReUkiGwiEqI4Qi0okiMjIoUvnPn/l/JN+O5GvyOXcaUd7UDMqXkkF5+XP+VPmezn/E167ck8+SBgQEQCAwCEABCIx2QikdQkAG+PjIEDqUg+hwFP/nz8p/+cx/J3iAN0+upHWZ/11mhYHIVdqurrkvQSFWEEokZVBx/lP+J/P/y6R8L8afoSC4Z4c7IOBrAlAAfE0c+YEAE7jEb+A7Y0JpZ3QI7eD/O/j/fv47FkGU4XIgDgxsx1lBkb91uW4sbwjXrEgyUanLGVTpEv9dTKeK/L8i/4/mWQYICICAbwlAAfAtb+TmQAL7coTwYB9C26N5wJfBnj8f4Ld5p4koNkciif9C6J88Untl2kHBUDqJlYGLpCgFlS6lU6ULRHINAgIgYB2BkPjQoVi0s44vUnYYgSSewt+cK4TW5g6ltblC+U34yvq8wzCYUt18vOeg1vkMqn0+nWqfS6fq/DkKewxMYYtEQEAIQAHAcwACBgic4s13a3LLlDcP+Dzob87JG+xYCYCYT0D2D1S/wAoBKwO1RTHg//lZSYCAAAjoIwAFQB83xHIoARncZcBfGhtKS/OG0i6e1of4j0AFXi5oepr/zqRTnXPYZOi/lkDOgUgACkAgthrK7FMCsvt+GQ/2S2PDaEWeUGUDn08LgMxUEZCNhLeeSaMmZ9OpCSsFcgoBAgIg4J4AFAD3bHDHoQRk69k/PNAvzBumDPx7eBMfJPAIlOPTBqIItDidRvVZKcBcTeC1IUpsLQEoANbyReoBQkB2qK/mqf2Z+UNpTv4wOmnqefsAgRDExSzA9gnanEqju06lU11eKpAjiRAQcDoBKABOfwIcXn/ZqT+zQBjN5oFfzq9Dgp+AGCtqy4rAXSfTlBMGwV9j1BAEXBOAAuCaC64GMYEtfBZ/WsFQmsUD/1EM+kHc0t6rFsfWCdvyzECnE2lU9SJmBbwTQ4hgIgAFIJhaE3VxS+B8WAhN5wF/UqEw5aie24C44VgC1dgi4f3H0qk9zwzkSoMy4NgHwUEVhwLgoMZ2YlVlil8G/VkFZPc+pvid+AxorXN0egbdeTKduhzHEoFWdggfWASgAARWe6G0KgiIZ7ypPMU/kQf+3Tinr4IYgrgjUJ7tDNzPikCnE+kklgkhIBBMBKAABFNrOrwuMth/HxfG6/thigtch+NA9U0kIK6RO/I+gb5H0kiUAggIBAMBKADB0IoOr8NKPrMvA/8SPrcPAQGrCTRjuwKiCDRk2wIQEAhkAlAAArn1HFz2ND7JPYPX9X8oGk5b2bseBAR8TUBODTyUkErteL9AGOwK+Bo/8jOBABQAEyAiCd8RkN38vxQOox+LhCluZX2XM3ICAdcE5Chhr6Np1PUYTg+4JoSrdiUABcCuLYNyXUfgIu/g/5Gn+b/nN/4zmOm/jg2+2INAbBpRX54R6MXLAzF8kgACAnYnAAXA7i3k8PLJ0b1x/Lb/bdEwkt39EBCwOwE5LdA/IY168KyAHCmEgIBdCUABsGvLOLxcSex2d0KRUPqa3/hhl9/hD0OAVl/8DwzgGYFuR9MpKgOKQIA2Y1AXGwpAUDdv4FUuhQf+XwuH0pfFwmGmN/CaDyV2QaAIKwID49OoC+8RiIAi4IIQLvmLABQAf5FHvjcQEC9875YMp8NRmOq/AQ4uBDyB4kkZ9PzBVMUrYcBXBhUICgJQAIKiGQO7EnKM763SEeyOFx7bA7slUXo1BOqeS6eX9qfA+ZAaWAhjKQEoAJbiReKeCMja/kclwmlyoVA+RY23fk+scC+4CITwE9/5eDo9fSiVZK8ABAT8QQAKgD+oOzxPWecfw0f6RhYPpwt46Xf40+Ds6udkY4KPxKdSb94sKOaGISDgSwJQAHxJG3nRgnyh9E6pCDqAdX48DSDwH4GSvD/ghQMp1DIR5oX/g4IPlhOAAmA5YmQgBI7xdP8bZSJoHisAEBAAAdcEWrMC8Mq+FCqMZQHXgHDVVALojU3FicRcEZhYOJzuujkKg78rOLgGAlkIiIIsvxUxdw0BAasJYAbAasIOTn9PjhB6uSx29zv4EUDVDRCQ0wLD9qZQucvYHGAAI6J6IIAZAA9wcEsfgVTe0P8Vb/DrVCMKR/v0IUQsEFB+O/Ib+pJ/S/KbgoCA2QSgAJhN1OHpbcoZSvdUj6KPudNKRqfl8KcB1TdKQH5Dn/Bv6e7qkbSRf1sQEDCTAJ4oM2k6OC3ZuyxvKl2rRdDOaIz8Dn4UUHULCOyKDqVu/NuS3xjOCVgA2KFJQgFwaMObWW0x3duzSqTyppIGgz5mokVaIPAfAfltyWzAA1UjYS77Pyr4YIQAFAAj9BCXphUIo448PbkGZnzxNICATwiszRWq/OamFcRJAZ8AD+JMoAAEceNaWbVz3Pc8Uz6CnuO/82GY8reSNdIGgewE5Df3XLkI5Tcov0UICOghAAVADzWHxxGnPR15d/J0fvuHgAAI+I+A/AbltwhHWv5rg0DOGQpAILeeH8r+dbFwXu+PoPhIvPX7AT+yBIEbCMhvUX6TX/FvEwICWghAAdBCy8FhZcrx0QoRivc+eO5z8IOAqtuSgPwmP2bPmoMqRGJJzpYtZM9CQQGwZ7vYqlT/8rG++/gI0vx8mPK3VcOgMCCQjYA42+pcLZLkNwsBAW8EoAB4I+Tw+zN5jfG+alG0NwceFYc/Cqh+gBDYxya45Tc7A3t0AqTF/FdM9Or+Y2/rnOXM8XB22/sU7/K/hKfE1m2FwoFAdgLym32af7vDS4UTbHNkp4PvmQTQtWeSwP//CJwKD6FevKlodBym/P+Dgg8gEIAERseFK79l+U1DQCA7ASgA2Yk4/PseXjvswmuIOFbk8AcB1Q8aAvJbvo9/0/LbhoBAVgJQALLScPjnv/OEUlc2M3qITftCQAAEgoeAmOuW37b8xiEgkEkAT0MmCYf/n8JmRftViqCzsOrn8CcB1Q9WAvLb7lspkn6HCeFgbWLN9YICoBlZ8EX4jB2MPM9mRVNC8OYffK2LGoHANQKp/BMfyr/1Efybh4AAFAAHPwMy4A/hzuBzdAYOfgpQdScS+IJ/8+JLAEq/E1v/Wp2hAFxj4ahPMh34UOUImorpQEe1OyoLApkExJug9AFY9ssk4rz/UACc1+aUePWY3yq48HVg66PKIHCNgPQBD1aJJBwTvMbESZ+gADiptbmuRyNCqEfVCNoWg6Z3WNOjuiDgksD2mBB6gPsE6RsgziKAUcBB7S3H+3rwUaA9MOvroFZHVUHAOwHpE6RvOBiFIcE7reAJgdYOnrb0WJPMHzjO+HvEhJsg4FgCV14QImAwyEFPABQABzS2TPHJtD+m+BzQ2KgiCBggcEyWCHlPAJYIDUAMoKhQAAKosfQUdX2uK5t8ZOMfBARAAAS8EcjcJCx9ByS4CaCFg7h9N/APuG/lSBzzCeI2RtVAwAoCmceEoQRYQdc+aUIBsE9bmFoSmcLrz2Y/L6CFTeWKxEDAKQQuhoZwH4ITQ8Hc3hgegrB1xeuXGPg4A2++Qdi6qBII+I5A5kwAPAn6jrkvc4IC4EvaPshLjvH05ml/rPn7ADayAAEHEFD2BHCfcgBeQoOutaEABFGTJkSG8OAfQbKTFwICIAACZhE4zn1Kbz4dIH0MJHgIwCVUkLTlSf6ByrS/+P2GgIBVBGpWiqP2TStTgxolqWih3FQgNoZOnblECSfO0eoth2jG0h20euthq7JHun4kEM+Dfx+eCRi7LZkKpmT4sSTI2iwCIfGhQ9GSZtH0Uzqn2bFPTz7nvysaEzp+aoKgz7ZZ3bL0xqOtqFblYl7runX3MXp15Hyas3yX17AIEHgEbrqUQWO3JlPeNAwdgdd615cYCsD1PALuWzK/8D/EWvlqOPYJuLYLhAJHRoTRJ8+3p57tbtFc3KmLttKAN6bQxcspmuMigr0J1DmXTqO3J1MkdAB7N5SX0uGV0Qsgu98eyj69MfjbvZUCs3y5YyJpxhe9dQ3+UuNOzavSvG/6UsF8MYEJAKV2S2ANv3A8z30PJLAJQAEI4Pb7qEQ4zSiAs34B3IS2LXoIzyx9P+w+Za3fSCFrVIijscO7UkQ4uhojHO0Ydyb3PR+UgBJgx7ZRWyb8KtWSslm4iYXD6Oti2MNps2YJmuI806sJtbm1gin1aVSzFL0+qJUpaSERexH4tlgYTSyMfsheraK+NFAA1LOyTchlsaH0Whn86GzTIEFWEJmyf7pXY1NrNaBLfSpbPJ+paSIxexB4rUwYLYvFTKQ9WkNbKaAAaOPl99Di2W9whUhKIxz383tjBGkBnuh+K+Xi9X8zJSI8jJ7p3cTMJJGWTQhIXzS4AkwG26Q5NBUDCoAmXP4NLAZ+/gf7/v5tBAfk3rF5FUtqKfYDQtm+PCT4CIjPkQHsNwAuxwOrbaEABEh7pfCurMdZy8YPLEAaLECLWaF0ASpXIr8lpc8fG214U6ElBUOiphCQvkn6KOmrIIFBAApAYLQTvVk6jOCaM0AaK4CLWd6iwT8TidXpZ+aD//4hIC7Ih5XG/iT/0NeeKxQA7cx8HuO3QmE0ATttfc7diRnGFcxtabWtTt/SwiNxVQR+4RNKv3KfBbE/ASgANm+jLTmx49/mTRRUxbN6jR6zw0H1uLitzBt8Skn6Loi9CaCFbNw+4obzMV5TS0KvaeNWCq6iHTl+ztIKHTl53tL0kbg9CEifJX0X3JLboz3clQIKgDsyfr6ezvk/fVMEiQcuCAj4isDe+ERLs9p76JSl6SNx+xCQvkv6MOnLIPYkAAXAnu1CH7OZ3+V50Dw2bZ6gLda2Pcfp4JEzltTvzPnLtHLjQUvSRqL2JCB92EcwF2zPxuFSYYSxYdOIpb9vYObXhi3jjCJNW7zNkorO+nMnpabhfdASuDZOVMwFw1KgPRsICoDN2kXWzMTDHwQE/EVgxLjldMlkF75pPPB/MHqZv6qEfP1M4Ply4dgP4Oc2cJU9FABXVPx47UUe/E+wQQ0ICPiLQAJvBPx8wgpTsx89dS3t3H/C1DSRWOAQOMl92gusBEDsRQAKgI3aY3yRMFqYF01ioyZxbFHeHrWYlq7Za0r9122PpxdGzDElLSQSuAQW5Q2jcUWgBNipBTHa2KQ19kSH0DulMPVvk+ZwfDHS0jKo14uTaNOuI4ZY7DpwkroNmUCXk1INpYPIwUHg3VLhtDsaw45dWhMtYYOWENvZT5ePoMuY+bdBa6AImQROnb1Erf/3PendFDh/5b/Uot+3JEsKEBAQAtLHSV+XjL7OFg8EFAAbNMOHJcJoWwyawgZNgSJkI3CRNwP2fGEi9Rj6C+3cp24Nf+/hROr7ymS696mxdOZ8UrYU8dXpBMSl+YclMdtph+cgJD50aIYdCuLUMqzkc7K9K5vre92pLFFvawmImeBba5aiduzWt0GNklS0UG4qEBtDp85cJLHwt2rzIZqxbDstW7uPZAkBAgKeCIzenkyNzuJYqCdGVt+DAmA1YQ/py3RY+5uj6GAU5sM8YMItEACBICRQMimD/tiUTNHpUBb91byYd/YXec53BFv7w+DvxwZA1iAAAn4jIH3fiOI4FeC3BuCMoQD4ib54yvqhKB5+P+FHtiAAAjYgMLpoGG2G10C/tQQUAD+gT6MQerEsnGT4AT2yBAEQsBEB2QHwEveF0idCfE8ACoDvmdMoto0tO2EhIAACIOB0AtIXir8AiO8JQAHwMfO9OULpi+J42H2MHdmBAAjYmMBI7hOlb4T4lgCI+5Y3vVw2nJLY8A8EBEAABEDgCgHpE/+P+0aIbwlAAfAh78mFwmhVbiD3IXJkBQIgECAEVnPf+Cv3kRDfEcBo5CPWF5j0R3zsDwICIAACIOCagPSR0ldCfEMAqH3Dmb4sBje/PkKNbEAABAKUgLgNHlkcZoJ91XxQAHxA+gAbvBhdFKh9gBpZgAAIBDiBMXGhtD8K/aUvmhGUfUBZXGCKxz8ICIAACICAZwLSV75bCnsBPFMy5y4UAHM4uk1lBTv7mZ8PD7NbQLgBAiAAAtkILOA+c3ke9JvZsJj+FQqA6UivJShWrt4qjY1/14jgEwiAAAioIyB9J3wFqmOlNxQUAL3kVMSbUCScdkUDsQpUCAICIAAC1xH4NzqExhfBLMB1UEz+gtdTk4FmJidHWUbA4l8mDvwHAUsJFMgbQ3c1rkgtG9xEJYvGUlyB3BQRHkoJJ85R/PFz9OfafTRj6XbaF3/a0nIgcXMJfMbeAu8+nkY5MRVgLtirqYXEhw6FM2YL0I7kB/dTuLq0gCyS9CeBsLAQalyrDDWoUZKKFsxN+WOjKfHsJWWgXb3lMC1ds5dSUn3XW5ctno9eHdiS7m5RlUJDvW+0Xb5+P706cj79vemQPzEibw0EnjicSo/yH8R8AlAAzGdKZ7mTbHlLpPLfguSRJAj4nED+PNH03ENN6YF2t1De3Dnc5n/2QhJNnLOR3vluCR07dcFtODNuvPjw7fRM78b8pq99mnjinE30xDt/0MXLKWYUBWlYSCB3GtGC9UkUm4Z3VbMxQwEwmyin9zG/+X+Ft38LyCJJfxB4sP0tNPzJtpQnZ5Tq7C9cSqbXv1xAX036R3UctQFzRkfQqNfupXZNK6uN4jLcpl1HqNuQCXTwyBmX93HRPgQGxqfSU4cwC2B2i0ABMJloYngIteC3/4sqpiNNzhrJgYDpBN55sg0N6tpQd7o/TV+nvGmnmfT2JtP8kz7oQa0b3aS7TFkj7j54ilo8/C0vY1zOehmfbUYgJj2DFq5PpnypmAUws2mwRd1MmpzWqKLhGPxNZork/EPglQEtDA3+UuoH29eiD5+5y7QKDHustWmDvxSqfMn89ONb96vaP2BaJZCQZgLyQvVtUe1LPZozclgEKAAmNvgJtmM9tgiQmogUSfmJQMfbq9CzfZqYknvfe+pS7461DadVp2oxerx7I8PpZE+gWd2y1KeT8fJlTxffzSUwNi6cpI+FmEcAo5V5LOlr1lAvYerfRKJIyh8EIiPCaPjgNqZm/fqgVhSbS/0eAleZD3u0tavLplx7od/tFJMDTmhMgWlRIpd57P+qGE6um4kXCoBJNI+xZiqGfyAgEOgE+vEbe8m4WFOrIccFn3jgVt1p1qpclBrXLqM7vreIRQrkom533uwtGO77mcAvhcPoKGYBTGsFKAAmoRwTF0bJmJ0yiSaS8SeB+9vUsCT7LnfoT7d9M2M7/tVUqL3BUwVq8kAYYwSkj/2R+1qIOQSgAJjAUTaoTGTNFAICgU4grmAuql2lmCXVKFMsH1UtX1hX2m1vq6grnpZITeuUpRxRmMXTwswfYX8pHE5iaRVinAAwGmfIg38ojP6YwBFJ+J9A1XKFKcRC19XVbyqiq5LlSuTXFU9LJNn7ULKIuUsfWvJHWHUEzvG71iS8cKmD5SUUFAAvgLzdTqMQGsO7UyEgEAwExLyvlaIn/VwxkZQzOtLKYv2XtuwFgNifgPS50vdCjBGAAmCMH80qEErxkXgQDWJEdJsQyMmDrZWiZyDXE0dvHUTZgNifgPS50vdCjBEAQWP86Ae8/RskiOh2InD05HlLi6Mn/ROnL1A6W4Lzhegpny/KhTxuJPA9DAPdCEXjFSgAGoFlDf53nlDanBNv/1mZ4HNgEzh89KylFTh8TLvdfTEjfDzRWsdCmZUW98GQwCCwJSaUpA+G6CcAevrZ0Xc4jmKAHqLakcD6HQl0+pw1dvFTUtNo+foDuqr9z6aDuuJpiSROgY6csHYGREt5ENY7AfTB3hl5CgEFwBMdD/cORoXSkrw4+ucBEW4FIIHUtHSa89dOS0q+dM0+EnfBemTGsh16ommKM2Ppdk3hEdj/BKQPPhCFWVi9LQEFQCe5SYWATic6RLM5gZG/rKSMDPPX3D8fv0J3zWeyAnD+YrLu+GoiTpq7SU0whLEZgUmF8CKmt0kwiukgJ8dPfsNDp4McogQCgXXbE+i3BVtMLeqif/bQgr93605TliU+HfuX7vjeIsoMw6oth70Fw30bEpC+GEcC9TUMFAAd3BblC6XjsEetgxyiBAqBZz+cRQcSTptS3OOnLtBjw6cZTuuzcSvo0FHtmwi9ZZyUnEqvfjHfWzDctykB8RC4MB+WAfQ0DxQAHdQmYvpfBzVECSQCJ09fpG5DJtCZ88Y2BF68nEI9XviFZIOdUVHSev4XusRpmimPvT2Ndu4/YWaSSMvHBCYWgjE2PcihAGiklsAGKJbmBTaN2BA8AAls/vcotXh4FO0+eEpX6eVtvc3A7+nvjebt4JdTCv1f/53kRIEZMnzUYvplDtb+zWDpzzSW5Q2BQTYdDYCRTCO0X3m9KQMmKDVSQ/BAJbBr/0m6ve839MWElZScom7QTU1Np+9/X01N+nxDG3YcMb3q0xZvo/aP/UgnDNgGkLoMenMqDf9uienlQ4K+JyB98mTsy9IMPiQ+dKj52301FyMwIshD1vyWSJJZAAgIOI1AqbhY6tHuFhK3uTdXjLuh+lt3H6PpfJRu/MwNtPuQvlmDGxL1cKFYodz02qBW1JXdF2txYLR0zV56ccRc2rjTfOXEQ3Fxy2ICRZMzaNH6ZO6lMaSpRQ0FQC0pDidT//0rwla4BmQIGqQExG2uOPYpEBtDp85epITj5+hSUqpfalujQhHqd09duqtJJYpz48xI9jLMW/EvjZ2x3tBpBL9UEJmqJvDNzhRqdlrdTJXqRIM4IBQADY37XLkImlYQZ041IENQEPApgWrlC1NJnqkQRSA8LJSOsG+DhONnlaUIMXIECW4CHU+m0fu7zd0kGszEsHVSZesmsY/0Bfkx+KvEhWAg4BcCW3gZQv4gziSwIF8YJYWkUpQFhqyCkSg2Aaps1aW8y/QCaKmkhWAgAAIg4HsC0kdLXw1RRwBDmjpONBNv/ypJIRgIgAAI+I8A+mr17KEAqGB1KTSEFvHUEgQEQAAEQMDeBKSvlj4b4p0AFADvjNjrXyg/UCoCIggIgAAIgIBfCUhfvRjG2lS1AYY1FZhmYPpfBSUEAQEQAAF7EMAygLp2gALghdNFnkpays5/ICAAAiAAAoFBQPps6bshnglgZPPMh9f+Q+kyniMvlHAbBEAABOxDQPrshXhx89ogUAC8IFocC0ReEOE2CIAACNiOgOzdgngmAEKe+dAyPEReCOE2CIAACNiPwDJ+eYPjNs/tAgXAA59NOUMpMRzz/x4Q4RYIgAAI2JKA9N2bcqL/9tQ4UAA80BHnPxAQAAEQMJsAWxanQvlyUsXSBalgvhizk0d6VwlgBtfzowBfAB74LMX6vwc6uAUCIKCWQER4KDWpXYbasSvlVg1vopJFYimcr2VKSmoaHUg4wx4Ld9GMZTvoz3X7KC0Nbm0z+ej9L334o4f1xg7+ePAG6KaNT4eFUMM6kVhDcsMHl0HAbgRKF81LLRuWVwZX8QYYER5GCSfOKd4Al63dR5t2HfV5kUP5KNoDd9WkF/s3p+KF86jOf3/CaRr29UKaOGeT6jgIeCOBEO7BV6xNpnypUKZupEMEBcAVFb42vUAYPVM+ws1dXAYB5xLIFRNJt1QqSkUL5aYCsTF06uwlHmTPscvdBDp7IcmnYMJYUe/dsTb1v7ceVbupiMe8D/CgOm7mBhoxbjmdv5jsMawZNyuXLURj3ryPqpQrrDu59dsTqM/Lk2jPoUTdaTg94ofsHrg9uwmG3EgACsCNTJQrz5eLoCkFYf/fDR5cdiCBDs0qU59OdahZ3bIUGXHjb0Omsf9cu59+mr6Ofp232XJCt9crSx8+244qlCqgKa+Tpy/Sa18uoDHT1mqKpyXwnY0r0qjX7qXcOaO0RHMZNpEVrF4vTaIlq/e6vI+Lngl0OpFG7+1J8RzIoXehALhp+Ea1o+gUTgC4oYPLviBQo0IR6nh7FWXtuGihPBSbKwedSLxA+xISaf6Kf2na4m0Uz2/eVkt1frP+5Pn2VL96CdVZyWzA0+/PoFVbrFmAfbRbQ3rzsdYUFnZtHV114a4GHDN1LT39wQxKSU3XGtVj+LtbVKXRw+4jmf43S1K5jPc/N47mr9xtVpKOSSc/T/+vWOvbmalAgQsFwEVL7ckRSnfeHOniDi45kUAefou7rVZpKsaDsLz5Hjl5jlbzwHbwyBlLcMjU8TAe3NrcWsFj+vLG/d1vq+md75Yo0/AeA+u8KQrIN6/eQzE5tC+HJaek0ZPvTqefZ6zXmbvraC8PaE7P9Wnq+qbGq7P/2kldnxtPGSYtEdesFEdzvuqri5e3op85f5laPDyKdu0/6S0o7mcjMGtjMpW7bK6ily2LgPwKBcBFs/1aKIxeKqu9w3ORFC4FMAEZiF/+X3Nqy9O5sqEsu6zdFk/DRy2mOct3Zb+l+/t9ravTFy92pGgNA66sbXcbMoE2/2vuJjcZ/H96uwuFyJk1A/LY8Gn047R1BlK4FrXLHdXpu9c7X7tgwqfPxq+gl0bMNZxSdFQ4rZ7wGJWMizWclrsEdu47QQ17fkmpaRjM3DFydf2tvSl033HsA8jOJuyZkMavZb/o9O8/FwmnbWwECGIfAlGRYfQQrz+/OrAlvT6oFQ3t14x68O5qmZ6WNd3Dx86aWliZYh73TleqzBu4wkJdPwuyCe7+NjWoAp/lFiXAaKcsu8W/5XVjV8qGp8rF5s6hlEPeZo/zEoEZIlwnfdjD5Vq/1vRbN7qJZBf+oaPGZkyE97QRvTTz8VbeBjVK0sqNB2lfvLGNdk/2vE1ZsvGWn5H7BfLG0LFTF0iUT4h6AvlSiVqehtKUnRhmALIT4e9tefp/Ly8DQNQTkCni23lzWJni+ehSUip3UId5V/gR9Ql4CNmoZin6/o3OHo9RTZq7iR4f/gddvGx8s89L/W+n5/s281CiG28tXbOX7h78s24loG7V4jT7q4cMDbhydKxJ76/p9LnLNxZQ45X53/bTtObvLXl5c63/wEhKT9c/1/45z4z06lDLW1a67m/ceYQaMzu9kj82mjZOHkyyXGS1HGcF4Ob7PqULl4w/61aX1S7pl+Xp/9m8DAC5ngBGuet5KKZ/Mfhng+Lla1d+C9429Sma8H53eufJtvQpbxhbNnoAzfiiN8nZbCPSon45mv55L4+Dv6Tf5Y4a9AeHk5kCI3IXT/drHfwlv6Z1yirr9nrzfv+ZOw0N/pKvsH6mdxO9Rfgvnuz217Lh77+IHj5ULFPQ0OBdiqfVe7a7xUMOxm7dXDGOjfRU0p1I51bVfTL4SwEL5c+pGBTSXVgHRpQ+HWbdb2x4KADZmKzJHZxI+t5Th+byG+b+OUNo8ff9eRNVEwo3sIM6E9t7T7VVpq3z5YnOvPTff7F8tuLnR6hW5aL/XdPyQUykjn6zi+op33rVStDwwW20ZHFdWOHx1hP64w+4r77mI2lSADkyVodnAMyQgV3qk0wTGxE56meFGEm3A+9HMHNXvav63d28qqvLqq61Zwt/vpR2TfQrK74sp53yCta+3Qjj4BztDBBZm8vYhicDWV8XVTYSiYET2fSUmw2vGJGxw++nT4a0p4Y8lS4Dde0qxejlAS1o3jd9Db0xt2KrawPvb+CxaGI0RnaR63kzf6ZXE8rL69taRPYJlOVlCD1yB++6L18yv56oShwx7fpw53qa48uxMbMkKjKcZBZDr0h7Na1TRm90j/FEESzG6/h6xBcDXpvbKvKxQu2//5zREdS4dmk91dIdR8wJW60Q6S6cTSPapW+3Ex4oANlaY60NZgDu4E1Tq8Y/Sp+90EHZ8bxy7CAqUUS9GdGsVXqQ10zl7cmVyFvnC/1ud3VL1TW1b9uVyhRSlBlViV4NJBvPZUe8VpFz4fe0rKY1mhLeyMCZmaG8zWuVlg3Ka43iMXwLA+mJhT9RIqwQOU1QT4MtgaxlqFres5W/rGH1fhZlszgf9dQqpXjpRevGTa15ZA8vBoaKFMiV/TK+eyBgh77dQ/H8cgsKQBbsSdxBbbaB+8gRQztcd45YZgPkjV2P3OtlMLy3lb7BMq5gLpKBXa00r1dObVAlnNhN19vB1eEZDj0iu/mNiqzDi+MXtSJ2BQrnN7cjL8GOZvSK7LS3UsSWglaR2SPZZOcL0VP/uALWMnNX7zgoAO7QuLwufbv08ZBrBNT3VNfiBO2nnTEhlOLnByQ/T9EXc+E0RI5l6RFxN+pJtA5YmWmJK1MtUlBjeCPr2PnZPr0eEbv2RkXecl3th3CXrhUDmz/Yuatf9ut66qu3PbPnrea7nmegMG/K84eYrTj6ow6+zFP6dunjIdcIQAG4xoJ22ODhEMcqR9iDWXbZsvtY9kuqvu86cMJjODk6pscU6gk+e69FtIY/deaSluSvC3vqjLayZUbWGy8zfuZ/sd2uVozU010eRtI0i4GZZbO6TFnLelJD22XGEwt9/pDTfsrXH3U1K0879PFm1cWMdKAAZKG4M9oeOMR86mU+S58p4mntTXYNqkd+X7DVY7QpXu67iyxl2rnfs3KRNe6SVXuyfvX6WYzGyHlnPbKOPajpkZ0HjJtY1apQiblcvfV0V8dDBkwUS7taKeKeV6skJaeRFqVKa/pZwx/RUf8jJ85nTcJnn/WU1WeFs2lGdunj7YLHHiOeTWhst8EMgKCY+edOasBGU577aBYNenOq8vmAzk5dPJ7NWLbDJWFxNfrWqEUu76m5+H+fqTOfKorCaI2e18Q2++T52j3KpbGJ1N8XbFFT/BvCzPrTNacbAnq4MMsNaw9RaOE/5jp4WbhKf3rixEeUEqtk1eZDupLeqnMGTEtm8iZ/6Jh2a4UHDVo41FLGzLDynItPCog2Anbp47WV2rrQUACysLXT+tDew4n09aR/FEcqRi27dWc78c9+OJM9sx2ic+yvXayeiQ37lv1Hkbxd6ZXZf+1SnNF4ii+W+Qa+MeW6GQ1P4bPe+2DMMs3+5X/8Yx3tPnQqazKqP89lc77CXa9IpzyKnfNold8Xep6l0ZKeDN4zdSghmXmcu5hMYtXQChGFU6/J5hlLt1tRpOvSnMPPc1oaa54aRUxRb9pljtVLtVkv33DA0G9XbT7BFs5Ofbwd2EIBuNoKxyJCgtpS1De/rqKWD39HxVu9o5g8Hc4e5PSs/Wd/aJ9il6+PDJtCrtZBV3AndeuDX9LqrfpcworN874v/0riClWNrNseT0M/ma0mqMswwuMllbMarhL4dvIqTcsimWnIgC2Doxnyza//sMtgfXsgMvOXWSMrZPS0NbqT/WPJdkNmhNVkPHWRfkVsOpfPl+ILhciX9fFVXmINUPp6yBUCUACuPgnYHKL/JzF25gaq2uljemDoLyTLAs98MJNa9BtFbQb+QHsO6X+jlhLNZb/3dz/5Ex096XmdVTrvdo+OUfwQ6K8JkXTkH/LMg1ZZvn6/IeXhuY9mskKmfzZGyiv7Jt4fvVRr0W8IP3XRNsXd8Q03DFzYxfsrjCgWsrdi3KwNBkrgOaq8wU83MMswef4WyxWUzBrILM8UE2eNMtN1yv8dMRj2Mtsa3gCvkpiXP5SWxxqzI58J1Yn/pVOStf6/Nx1SPJXF69hM5Y6bdP7i9/7E6QuKfYSYHJHsoS9EmU6Wt+chH8+mT8cuN23tesnqvXQxKYWdG5VT5QpXOuOeL0ykJANr5zI1LkrOXTpNvF64lEydnviJ9idoX8N2xX39jnjq3ramKQZuZAan90uTaH/8aVdZqb4msyT97qlrSpmyZzqQZ7GMKKsn+eRJ6WJ5SXwKWC1f8yyPmctGVpfXbulXupROtc9rX+qxWz3MKA+8AV6l+Fy5CJpWEAqAGQ9VsKRRrXxheoXdD7dms6ti5je7KHspvltMM5Ya3zyYmba4OBZnSlqs8cWz8tCN93ms5w18ZkpnNhL1w7D7DCf51Hsz6Lvfte+NcJWxOJ4Sl8lmyhcTVtILn84xnKQYr1o38XHKEWWNJUUpoCy11bxvBBk56mm4ogGeQMcTafT+HnhSlGaEAnD1Yb6nehRttckpgAD/fQVd8fPlyUG31SqjeCSMDA9Tdl/LbvZ9Bt9o3YGqUaEIvfX4HXS7F+uJsulQNj0O+2ah4XV/d2URc8xfsBveaHb3rFVkSUOWg0ZPNXdPwasDW5ji9VDqM3fFLrr/2fGmTd8/wArcly/frRWVqvAZfDTmAZ5p8vV+A1WFC6BAVS9m0O+bkwKoxNYVFQrAVbb16kTRWR2OQKxrGqTsdAJ12VdDR/bj0Lh2GcWJTizbqj+eeEGZSp+/8l9lHViWR6wW8Q/w6dD27NVRvYllObb35HvTaeXGg5YU74kejeiNR1sbcojz0/R1JDY3zNgMm7WSbz7emp7ocWvWS6Z8Hsa2QN4frX1/iimZB1EiuXmrzeo1l4OoRvqrAgWA2cnALwoABARAwD0B8SvRp1NtasyzIa6WRGRGQk5+yMA6YfZGElsOVkqL+uXow2fbafbgKOv1b3y1kH6Yov9Ugqd6iTVxmcF5rHsjT8E03Xv3+yX01reLNcVBYPcEVq1Jojw6jny6TzEw70AB4HaTqX9ZAoCAAAh4JxCbK4pdShcncZwjtvPFVO8R3sC4bls8iSlrX0o4e38UpaQ/u2GuUq6wx6xlo+XYGetpBG8YPcv2MKyWnu1uoY+HtNO0nyN7mcSOxiNvTmHjVvqPKGZPE99JWQKQpQCnCxQAfgLm5QulxypEOv1ZQP1BIKAJlCuRj1rUL0+l4vJSHCsnohyI6eEEHvj/XLff9E2SamCJsy3x5NnljuqqTpRkppmenkFjZ66nt75ZRGaeqMlM3+n/P9+VTK0T1dkXCWZWUAC4dX8oGk7vlLRu524wP0CoGwiAgHcCcqKka9ubqV3TylShVAG3EbbvPc6nSrbT+FkbdRmVcpswblxHYOjBVHoo4Zq/letuOugLFABu7DdLR9BPRXAE0EHPPaoKAn4jUCoulkrxzIAsoYirYzElLDMV++MT2ZjTWb+Vy0kZ9zyaSi/vhwKA115+6g9h+d9Jv33UFQT8SkAce+l17uXXggdR5oejYA5YmvNG6yZB1Mhqq3IwChjUskI4EAABEAh0Aujzr7QgRj7mAG0w0H/OKD8IgAAIqCeAPv8KK8crABeYwCXHU1D/w0FIEAABEAh0AtLnS9/vdHE8gkS4hnT6bwD1BwEQcCAB9P3YA0Cn2T80BARAAARAwFkE0PdDAaBEKADO+tWjtiAAAiDABND3QwHghwC/BRAAARAAAacRQN8PBYAStXs5ddrvBPUFARBwOIH8eaIV08rBhAF9P5Hj339PwwVwMP2mURcQAAGDBG6uGEftmlSi5uxXoUSRPFSkQC6KCA9j744Z/1ktXLX5EJss3kFL1uyl5BT2rxuAgr4fCgDWgQLwh4sig0AgEsibOwfdcWsFatXwJhInQXEFxRRwtDKoHmFTwPviT9Pc5bto3opddO5isk+rKC6MH7jrFhrStymVKZbPZd4hHKhgvpzKX40KcdT3nrp0jr0qfs9ulT8cs4xOn7vsMp5dL2IPAJHjfQE8eVMEzcoPPwB2/ZGiXCCghUClMgWveAMsmIvC+a1VBtb442dp879HKc1P/t+lTK+wR8A7G1fiMnk/eS1v1H8s2UbDvl5Iew4laqm+rrC31ytL7z7Z1qs7ZU+Jy+D/weil9Nn4FTxT4Cmkfe7deSqNPvk3xT4F8kNJHK8A9KkcSSvyeP9R+qFtkCUI2JaAuNqVqeECeWPo1JmLdPTkeUpJ9Y971arsaa/v3XUUT3vFC+dxySzx7CWaw2/XY2espyWr97oMY/bFXDGRNPyJNtSz/S0Uxry0SkpqGn3/+xp6+Yt5dDnJGsc1g3veSq8/0opCQ805Dj3rz53U79XJdN7HMxha2Ur4RmfTafR238606CmnlXEcrwB0qxpJ63Jp/3Fa2ShIGwTsSEDWg7u1rckDbSWqXaXYdf7tZX14484jNGPZDpowa4MynW11HeL4Lf/VgS2p+501NQ1gi/7ZQy99NleZFbCqjGWK5aVf3u9u6K06s2zrtsdTtyETKOH4ucxLhv/LgP/l/3VS2BlOLFsC2/Yco3ue/JlnXswrb7YsTPla63w6TdgKBSBAJmxMafMbEulcLYo25zRH+70hcVwAAQMEIni6uGmdstSkdhnFdWxsrhx0IvGCMrjOX/kvrd+RYCB19VHz5IxS1oYH3FefoiK97xuWN9cfeF347VGLeXbgkvqMNIRscHNJGje8KxXKn1NDrGtBk5JT6Yl3/qDxszZeu2jSp2o8IzH9i95UgF39miWylNH2kR9MWxJ4+4k76LHujcwq3g3piDLY+n/f0SWLZi5uyFDHheoXMmjyliQdMYMniuNnADrUiKKd0VAAgueRtqYmsbmieBDOQ5ERV9aVj526YE1GnGp0VDgN6taQBj9wG8nGMXey++ApevObhTR5/hZ3QQxfr1CqAE3gN1n5r1UOstvbbkPG06ZdR7VG9Ri+fbPKNHrYfUpbeAyo4uZb3y6id79fqiKkuiCyJLL4+/7KJj91MdSH2rHvOLXoN8rwBsEHeUnii5c6qc9YZ8ipi7bSgy9O0hnb+mgVL2XQH5ugADh6BqDtzZG0NweWAKz/uQVeDlGRYfTwvfXo/jY1qFblYtdV4EDCaZq6eBuNGLtcWf++7qaBL5XLFlKmjssWd70T21XSMhvw0Mu/0pnz5nZm8iY7+6uHSGYe9MrFyynUafBP9PfGg3qTuC6eHFGb+3VfislhngGPh1/7jSbO2XRdPnq/zBrZh26rVVpvdK/xZvISiywH6BVZxln7y+OUg5VMX8igN6fSz7zvwo5S9nI6zd6IJQBHKwAtakbBHbAdf50uyiSbvTrw21+lMoUoZ3QkHeONZ3+t38/nkbcbfivKnp1MMf/wRmc+Bx2b/dZ132WA+z9eTx712+rrruv5Uq9acZry6YOUm6fctcrOfSfojgHf0yne7GaGyJvsEn6TLcXH1YzKcZ4tadb3Gzp09KyhpGRmZPWEx6hknOc20ZqJbLC7rfdXtGv/Sa1Rrwvf5Y7q9N3rna+7ZsWXzk+NpXms9OmRr16+m3rcVVNPVF1xDh87S7d0GUFJyfazFVA8KYMWbjBXadYFyY+Rwp4JafyaH/P3e9bfFgunizAGZEo7yJnmKuUKU948OegMHwtKTzdHtyzEZ4+/ffUeev/pO5U1cVEEZEr6lspFqcPtVeihu6+cR5bNUmaIbHKb9EEPysfWz7yJGEhpc1tFimGFRDaX6ZVihXLT9M9787lwfevGMmDXYQXilzkbTTmGNfKljtSoZim91bkunihrVcsVoQmzja23P92rsaIAXpe4CV/kaF4JPj1gZClF9muMfacrL9l4f2aMFrn6TUX47L12hVNmdD5+rt11mzeNlsVbfNk/cu5ikmkzQN7y03I/B3dPfY/YTzHRUgejYR0/952K5X+jzxBVLF2QZvCmp72znlPWP/8eO4j2zh6inH2WjtGIyFT40tH/UwZ6d+mI4vHxkHZK5+YujNrrolyMeu1ezevLgx+4lXp1rKU2mxvCvcPnsOVYnRGRzYL92DiLUanFitW9LasZTea6+M3rl6OWDcpfd03LF9kLIYytknZNK1PdqsV1J9+RFVF3BnR0J+omYjVWAFqwlT6t0rN9LU2nJbSm7y58rw613d3y63X0/fAFQEnGxie/PsBaMpe3hlcHtqDx73alt3gHsFnrlDKd+OeYAcpOdbEUlimi+T/bpwktGz2ALZ7pG9hkw93ED7qTu7PdmXll/u93b10a2KV+5ldd/z/gWQZ5Y9Ujbz52B88aaF8vlwH37hZV9WR5Q5znH2pmeH13UNeGlrwlGtl1fmfjirqWRm4A5OFCF97roVdkY6IvpT0rLFrF12XMLJ/M1slLgt3EKX2/J+4OGf7cI0i5Nma5D+SHO3JOt0q5QqbsJn6cj/ss/eF/9EzvJoqxFPkum5VkSt2IVChdgD4Z0t7jgCNv1J+90FFXNnLsTNb7tchL/2uuaxCWPGTdvzG/ResVeUuVTYNapWvbm7VGcRtejsUZedMO4+UwWdKwQprWKUO52TiOHtEz4GnNR28eYhSpdaMKWrMzFP4uttWvReQFQMwP+0tkWc1uYte+35ecoABkeWv1JXhPeYm2/A9Po8tU+qbfBtOkD3vo3vUsb/pvPt7apQnSAfy23LPdLZ6K4vHeR8+28zj4Z0Zuw/bPZYpUq/TuqH3qUHas391C3/S1bDA0Knrq2dbkAfdOA+nVqlTM49FDI3xkv4Temaf6NUoayVpVXNlcqGe2Soz+yIyXL6Uo7xmRfR9qRRQAf4q/83dV9xQb9v2uymnlNccrABE2NFz97Wv3UEW2H54pMoAO7dss86um/4/c38DjdK6cN9cj8rYra85qRevAKBv/sjJQm4+Ea6zzGFbNikW1ZOMyrHR0WvoVmekxe+24fMkCLsum5mJxPiZmpRQvrH0Hv8xKyPPgCynKDnq0ijj18YfEadgz4q8yZnLRwzUzrlX/7dj3W1VXd+k6XgGIzLDXGoAMrNnPnEvj3V6vnLs29Hhdzk17kip87lzPRj05HqfFfrjW42R63sQy66m3szG6CU/yF5vvBfOqH6wK8lucFo6ZdfT0v7CGgSF7OmYwyJ5m1u960heeZjPKWqasn/WUz1+Dq8wCqBUjvye1eXgKV8RPSpKnMtmt7/dUVqvuQQEw6aiaWQ10lt1rytny7HL01Pnsl1R9FyctnkScpOhx4nLhkjYDGlrDX7x0IwNP9ch677zGsmXGNcuBiZa6umrrzPLo/X/BgCMWI3HVlFcLm8z0Lupsz8z4Wv5f0PHciVlhf4iWs/VREb4x/OOOQxRv6LWbRNqs7/cHH8crABHmHFU3re3k7PwHo5ddl15aWjp9/NOf111T+8Wb57PFOj2j7YtPJDHwolZWbT6kNqgS7uDRM6RnsJDIO9gojh45eOS0nmjXxTnJnvG0DOqidIhPdTNF3N/qlQS2OW+l6En/HDPS+yxorYvY3NcqeuJozcNVeC35HjmpvV6u8tR77YiXFxG96RqJZ7e+30hd9MaFAuAfD6Ye2+uDMcsU066/sY33n6avo1bsVGP5+gMe47i7+SGntevASZe3xVHLiyPmuLzn7aJsnfjk57+8BVPuyyyDVsMl4hN93gp91s6msy91PTL/7916ol0XZ76OMq/YqK9tr8s4y5eVBszubmVPbuLZzyrZ8u9RXUnvOXRKVzwtkeSZO8SKp1bRo9RozcNVeC35agnrKi+j17QoK0bzUhs/woZ9v9qymxXO8QpAlHV9naE2Eqtkfdi++6NvTaM1W/VbuBNvXOKVa9LcTTzVf8XqlcwyLPxnNzV76Bs6csLzEoGnSnw+YQUrJvs9BVHuPffRLF35vPfDUs3WBBev2kN/b9I225BZgT/Ytv+Z85czv+r6r8fu+fQl23Xl5S6SmEbWK/I8rNueoDe6x3j72X/Clt3HPIZxd3POX7vc3TLt+tI1e3V5rxMTx+L4yJeymRUpLUtWe9hxlD/F3/m7qrtd+35XZbXqmuMVgHCbKgBmNri86fd79Tcq2mI41e8xkoq1HE53D/6ZpEM2IvKi2OWZcTRm6lqXyYjr2gdfnKjb0Yp0cq9/tcBl2q4uypLEo29Pc3VL1bXTbL5YZl/0ijjl8bbk4irtX9hErlm+3kWZcDfj4ypvV9cmsjlhK2SSAYc70w0oNWrrYiQPcdLjS9Gq5MmskDzf/pLZy3f6K2u3+Tqh73db+as3HO8LYHKhMDoWaa+TAN4aTe/9NH7zP3H6oq5Nf+7ylGnTWX/upAU8fX6G17JlEN6wM4F+nr5e8be+3uDbpHRcl3mTVbM6ZT0eZ5Qp4nue/Nmwv/R/Nh2k2lWK000aj9LJ1HHnp8dpWv/PZJrKezxOnr7Adu6120rITEP+X+LNo71emkSi8BmRjbuOKA5j8hjwApg9fylTn5cn6XYKI1PYTfkZ0HqaJHs53H0/xptsH2PlUc+GWElT9n0Ysanhrlzurg/5aDZpcUmdztp6tfJFSMwI+1pOcp8z5OPZpvioMLPsRXkfc9fjV2ZFzUw3kNJyvAIwhRWABIcoAFY+mOL1ayErAbJ0MY2n0mXTnyw/mCGiBMjbWcF8McoAIAZlMkUG/hHjltPAN6aQWRuN5O1K3PKqtUMgnvjuZQ9th5iBXpHZjsL5c7HyUUxvEvS/13+nP9d5X5LxlkFaWoayFm6mP4Chn84hI3sTpMzb9x6jPp3qeCu+rvv/99k83UtHkqEsAYhdDKsUlKyVkufzy4l/Z72k6nNySip1uaOGqrBmBho3cz3N9sESjtYyl0jOoPscrgCExIcOdcAkuPtHo0/lSFqRx/ErIe4B2exOVGQYlYrLq9jrl53NRvYweKtan0616cWHb2frcK7PW4sb2a9//Yfe+36JKe6IxeDNJ8+1p96crxaRvR1Pvz+TxkxzvRSjJa2sYV8f1JKeerBx1ku6Po+euoZng6brips90rMM7HcAADTJSURBVPDBbehRncarsqeV+V3W/jsN/olE8TEidaoWo0Xf9TeShNe4ciKo/gMjdbsunvt1X2rIJq99JTIrVZPdAVv5O9Vbl0Zn02n0dm3HmfXmZdd4jp8BWJw3lP6NhgJg1wc0e7mkk5bpZHnb17IJKns6ar6v35FAX036m/7hTYWS3+FjZ2g3n6hYumYffT3pH3ryvek0c9lOkmUQM0T2VMhySvzxc1S/egnFxbC3dLfypjqZ9p+x1Pw1aNnPkD9PDNVlN8N6ZdzMDTT43ekkU9BmyCLe5CnlKVcivxnJ8ZLRKWXwv3jZ+GyV7OOQZRNpO6vkXVY2py7Sd8pFyrTzwAnq1UG/10qt9fr05+U0w8f7I9SWscaFdGp7ytlHARw/A/B66XAaV8S/RjLUPrAI5xwCudhpzkM83d2BfSjIgJLVEp68VS3kgfC3+Zvp13mbLV9blZmQt59oQ1ImtSJlHPb1Qvp8wkq1UVSHyxkdQaNe70ztNDrEyZ6BLLt0fW68qTv4pZ0mf/SAIYdM2cuZ+X3qoq28qXZS5lfd/z9h19l9TXAb7a0AO/Ydp+b9RlmuqHsrh7v73Y+m0Wv79Rscc5duIF13vALwafFwGsl/EBCwKwFZ9ogrkJvfLqPoOJ+skM1fcpTTlyL7L8TVsLh/zu3B8Y0Y7Pl17mZ6+7vFpp1scFVP8bfwUv/m9DQvUYSHa5/BE8VJNv1pMdrkqhyursVyO038oAc1qlnK1W1d12STbY/nJ5iyr0a8F04b8aAhz5feKiGzdM37fUt7Dyd6C+q3+4MOp9Jg/nOyOF4B+DEunN4qBQXAyT8C1F09AfEb0axuWWrA3vnE54J4pDspSzK8S3/1lkMkU/RaTNSqz9l1yPK8FPDqIy0Vb5NZZ0lchyZaueEAvTxyPv3NG0utFOEk3jK17udwVaaRv6xkg11zTVX68ueJptlfPaRsdnWVp5FrogTe/+x4WrZ2n5FkLI/74oEU6n3EnOU7ywtrUQaOVwCmFQij58pHWIQXyYIACPiCgHgLvLNJRWrV4Ca64tY3t+LkStblZU/FnzwYzVi23fAxUa116dS8iqKgaD1WKvls33ucXvlinmU76HPzks73w+4j8TZqlshpiG5DxtOmXUfNStKydN7fnUIdT0IB8O1comXNqS/hZbGh9HAl9Wub+nJBLBAAAacSkNMdvTrUpu5tb6b6PHPiaaZCdvmv4FkK2Tw5btYGU9/6XfHPXEp5sudtFGnQYc/cFbto4LApdCLxoqusbHdt1I4UanIGCoCjFYDNOUOpczUoALb7daJAIBCEBGTJpEX9coq9AFlCycdT8WIoR06Z7GcHW2KiO/Gs7y32lYqLpZcHtKD729TwaHDLVZOs2x7PMxXzdVnBdJWer65N3pJM1fkkgJPF8UsAh6NCqEXNKCc/A6g7CIAACCgEyhTLq1ikbNe0EtsLKOV2tuLfgyeVo6dilMiogSd/oV+wIYlKJDn6/ZccrwBc4A3Etevm8NcziHxBAARAwJYEoqPCqVihPBRXKDfJHouz7ChLZiqO8J6KU+zhM9Bl7erLlNPZEwDk+O3v8gDE8JGqi3x+FwICIAACIHCFgJjy3s2GkuQv2ET6fKcP/tKm2g/QBtuTwPUp7vBpoCBsUlQJBEAABNwSQJ9/BQ0UAOZQMsntc4IbIAACIAACQUYAff6VBoUCwBygDQbZrxvVAQEQAAEPBNDnX4EDBYA5lEhy+E4QDz8U3AIBEACBYCOAPv9Ki0IBYA7QBoPt5436gAAIgIB7Aujzr7CBAsAcSmAPgPtfCu6AAAiAQJARQJ9/pUGhADAHaINB9utGdUAABEDAAwH0+VfgON4OgGDIk5ah/J1lm90QEAABELCKQIkieaglOywqXTSvYmBHvPKdPMOmgNmb4r740zR/5b+WulG2ql6BlG5mfx9IZbaqrFAArpKVKaGtMVZhRrogAAK+IpAnZxTFsZ39cHbJawerdVGRYfTwvfWoGzsDqlmpqEcMGRkZtHZbvOIM6IcpayiVnQNBzCWA6f9rPKEAXGVR4WI6KwBh18jgEwiAQEAQEJO17ZtVpvZNK1OLBuUpNtf1pr0vs0W7P9exO+ClO2jKoq2K8x1fVaz7nTcrTnZKFIlVlWUIu+erU7W48vdY90b02pfz6fcFW1XFRSB1BG7ivh5yhYDjfQFkPgijiobR+yUjMr/iPwiAQDYC4sa2Uc1S1K5JJWpwc0kSb3YFYmMUu/Ayhb1q8yGasWyHMtim8bKa1SLlebB9LXqp/+3KG7+a/M5fTKbPxi2nEfx34VKKmii6wshb/+cvdKSu/NZvVGQm4JkPZmI2wCjIq/GfO5hCDyc42w1wJkooAFdJLIsNpYcrwS1w5oOB//YgkDd3DmXQFacseXJFsa/1C7Q/4bTiMz4l1XdvMnfxoP/6oJZUqUwhr2D2sO34YV8vpMnzt3gNqzeAOKcZ+05X9lhXUlcSB5hhtyETaPO/R3XF9xRJ1vUnf/yA8hbvKZyWe3+t209dnh1HosBAjBEYtSOZmpzx3W/HWGmtjQ0F4Crf4xEh1LgW3AJb+7ghdbUEGtcqTc/1aUpNapdR1rKzxzt3IYn+WLKd3v1+Ce09nJj9tmnfZXr961fuobtbVNWc5rwV/9JDL/9KZ7msZkrlsoXoNx5g1U6ru8v7wqVkpXyz/9rlLojm62G8kXjaiF5Ku2mO7CXCTJ5d6f78BOJtAhADBP5cl0SFUgBREEIByPIgNawdRYnhOAmQBYnjP97Cm7a6tKlBzeqUpeKF81BkRBgl8HT36i2HaRqvJ8/8c6epjHLFRNKX/9eJOjVXN+CmpKbRez8sZUVgqanlkMTy5clBf3zWm26uGKc77Z37T1D7x8bwLvfzutPIGrFA3hha8n1/KsW76M2QS5dT6I6B39OGHUfMSI4+eu4uZcOfKYm5SOTDMcvo9a8WuriDS2oI5EvNoJVrzVVI1eRr1zBQALK0TO/KkbQyD0wjZEFiq4/ydtXo5lLKNLQMlEfZN/lf6/fTwSNnTC+nDDQfP9fO65vvhh0J9MQ7f9C67QmGy1CkQC5+e3yQqpQrrDmt3xdsoYdemUzp7ObUDBHWUz55kJrVLWs4OdnV3vaRH0g24xmVWSP70G08O2KmHD52lm578CvDPu4b1ChB877pZ2bRbkhL2rfRg1/Stj3Hb7iHC94JNDibTj9uxzJKJqmwZ0Iav5b5xen/t8WE0oZcUADs9hzIZq9BXRvS+He7Uf/76lPb2ypSi/rlqcPtVejRbg2VAWHL7qOKQmBG2SuWLkizv+yjbHTzlp4cN+t+Z02SN90d+054C+72vmwa+50HXG/HxNwlIEpDLO8XkHPkZshL/ZvTA+1uMSMpKlooN88mRNOc5cam2u/nmRjZGW+2yLHBCJ7ZWfD3bkNJ//BGZyoRp263v96M5JRASc5j0tzNepNwdLxWielY/8/yBGC0ywKj4iVsDMmCQ/XHHLxO/OLDt9Oq8YPo+JKX6MDc52nKpz2pVcPyqtNwFzBndARN/ugBGj64DRXkjV+upClPzy/49mHlnLWr+1quyQauXz/qoWmKWer/3eudSd4A9cpLDzenutWK642uxHvk/gbUuuFNhtKQyHEFc9HjJg+0D3WqQxVKF9Bdtgg+0//ygBa643uL2L9zPSplYPBuWqcMNeQTEr4QUYBrVtK/LOOLMto1D/Tx17cMFIAsPCpfNGf6NEuStvkoU+Ztb6tAg3veyuvLVUimuM0QWSP/68eBNLRfM2VqPioynGTnuryh//ZxTz4K1UFZN9eb17ev3suW07wrErI2L2vnt9czNmX95hN3UJli+TQXV/L/6uV7KDxM+09K9hYM5MHbDHnj0VbEL4mG5Iket1J0DnOPxIYxl2d7N9FdLnmexHqeVSLt1/2umrqTV7tnQ3cG2SJ2ul3dHpFs0Rz/NZj7eD2Nq7230pNLgMSpyAYiIoJwi628nawa/yhN/KAHDXu0Nf309v20buLj1OWO6oZaJpaPpU14rxtVKOX+za5Xx9q639w6iHEX/lMrMsh8+nwHXYOw5FG+RH7qwdP5eqV8SY7fTnv8HjzwyCyCGVLtpiJ8NM7Ym2hHXlqxQu5sXEl324iRH6vFSB5iG8GX0q6pb/PzZd2sykv6dunjIdcIQAG4xoIieQKgxgX/zwLImuQXL3VUptJ3THuanu7VOEsptX2Ut6YJ73VXdrBnjSlv6fJ2LQZd9MpbT7ShYvz26k1kOrl2lWLegt1wX880dNni+UjOrOuRTnzUTfYbGJF7W1bTHL2dyYObkcFBjtiZtcM+Owh55vQ+b80MzuxkL4ur77L/Qk4+aBVZk1fzO9CarqfwsucjN8/qQdQTkL5d+njINQJQAK6xUD7VPuf/J+QznjYXC2fSYcoGqtceaUl976mTraTqvg7p25Rk+t+VyGD3OqetR+SNtUtrdTMIkk/P9to2lEnnVr+GPuVE7zr4rbcYe3MWjrfWLK0ZZ3V+azdTjKQnCpSVUk5n+mIIyReiJx+xiOgPieO+AaKegB36dvWl9U1IKADZONc+n5btim+/iuEVV1Ow3droMylal+2Ke5JbKhfT9dYrMwta1okrq7Agl7Wcspta79u43jdYPZ1/1jLLZ1GMtLxF5o+NNrRHInv+8t3IgCSnGqwUPenLfhVZo/eFiMKtVfTUSWsersIbaWdX6QX7NX/37XbkCwUgW6v4W0t0N/+QrnNvgrdo4n1M/rSKjiiasrA6fVeF0cPBVTqarmlH7zV5I+ysZqCnbFaXKStQPeWTEwr+kIhw3yhF/qibFXn6u2+3ok5G0/TPk2u01BbGF0tR5S5b0CurLLMYS/l13o1nfMfOWK8yheuDiYMWTyJGWvR0evsTEukiW1FTK1v3HFMbVAl36OgZStPpClXKpkfij5/TE+26OGJZLvHs5euuefpy6uwlSko2biAnax5HTuqvhxhXslKO6ijbqTOXKDnFNzNzYuVRqxyxmJm78ugpq7u0gv269OnSt0OuJwAF4Hoeyrfa5/y7U3Twu9Np5C8rSRyWbN97XPEE9tN0fQrAO2wr3p0tdhlgX/lingsC3i8lJafRL7M3eg/IISSfnzWWX5yerNx4UFX62QPNZRv0ekRcxhoVsUyoVcx2SLNx5xGtRfgv/O6Dp/77bMWH3ewoSI+ItT5fSLyOfI6YoDjqqZt4YISoI+DvPl1dKX0fCgqAC+a1zvtXAZA366GfzKHq935K9XuMpG8nr3JRSnWXpOO87+mxNziMOXn6IvV6aRKt2RqvLiEXof7vs7kkb+re5NOxy2k9m8zVKuKyVavsOnCSZv25Q2s0JfzUhVt1zzpkZjjZxexN5j13/8VPvZkiLnn1ilg03BevbwbFW56JPNvx9yZ9St2if3Z7S97wfZkNO31O/exNZobinVFPvMz4ev7L71pmRiDqCPi7T1dXSt+HggLggnmwaYvyJt3ggZGKU5ZnP5ypKAQ17xuheJNzUX3Vl87xW/r9z45XZilcRZK121G/raK3vl3k6rbXa7PY0c7k+Tcuh7iLKI5xHh8+jQdxfVN9++JP00/T17lL3ut1GTwnzFE3K5I1sbEz15MsHZgh8vb/t86Zk8z8py7alvnR1P+imOhtG7OVJFcVm7F0u6vLXq+l8gzXXINmjr1mki2A3rJmS8YxX4OtTzer4aAAuCAp60UFgsxdpOwtWLpmH33z6yqSKXJ3ywIucHi8JNPXjXt/zR7KFpAMPpLusVPnafZfO6nD4z/S0+/PJCN+6x95cyqpeaOVAbTfq7/R8vUHPJbX281XvphP/x486S3YDfeF74A3ftc1wCXwFPIXE1bekKaeCy9/rm9JJ2ten/HMi7jKNVNEOftw9DLdSS5atYf26Fw+UJOptN+4mRvUBHUZZrpO5cFlYiou+kIhUlGMgAgifbk/93XZGRIUADet0/SMf5cB3BTLlpdlg9aHY/5UFIESrd6hm9p9qMwMiMJhVKRj7sE+0GVfhKv1WZllEGWjWd9vaQpP4RsVmcrt8vQ4TYONLNn0+T9jyynDv1tMKzcYU15kqUUGSqNy7NQF+vinv4wmc138Ub+tJr3r/5KQvGW/YaEb3K8m/U1G9hlMX7KdrN4/kQlUFG0z2jkzvWD/j77cfQvDHbAbNjMKhNHT5c21h+4mK1zWQEDsGlQqU5BysbVE2QS1ggdNGbDMFjnL/95Td5J4oBMPbO7kHz5l8SQrJ2Zs5CuYL4Z+Z/8JejwCjp+1gQYOm6LrRIeruokNhklsOrp1I+POhWTdv92jY0zZyS/ukm+vV85VkXVfkzX8xr2+ojPnk3SnIRHvaVmVxrzZxVAaaiJ3euInKABqQF0N89HuFGp30jenSDQUyxZBoQC4aYbT4nu+ThRhHsANIIdcrlKuEN1/Rw1qWrcslSgcqxikEcVj1ZZDJGvlRl3IZscohqA+HtKexD+AGpGlD9ljMWLcCjXBNYURk9S/s1fHetX0ezncwktEHXnAOp5ojpImitnCUf1J/C6YIXLapNX/vqOtu7UdU3WXtxUKSta8pi3eRj1fmJj1Ej57ICBT3CvWJFFenfuCPCQdFLegAHhoxm5VI2ldLqySeECEWxYREN8J4j1PPCG6srh4ggfUKYu20vu8ri57CKySqMgwGjG0A3XX4SRJpsX7v/4b7ycwZ4NjZh1v4sF/Ms+UGDVbLPtVHuTB1MzpdFFQFn3Xn8qxYymzRZSUlv1Hmc7T7HLaKT3Z/T9hq7n7WexUP6NlgQLggeDI4uH0Kf9BQMBfBGRGoC6/gRdjE7V5cuVQ3qTFPsS67foMOOmtR4v65egN9iR5c0XvfujFdsVrI+fTTD7FYZXkzxNNY97qQs14ZkaPyEbPrs+Np137tW/49JafLFHN/KIPFcqf01tQ1ffluO2dj4wmWa6AqCcw+HAqDeI/iGsCUABcc1Gubs4ZSp2ruXak4yEaboFA0BKQmQnxNtiAHTWJDXyx0y/n0Y9eXRaR3emyPKLHuqQeaF15j8b/DWhB4ptCjcgmz49+/JNk059sMLVKirOXTHGVrWc/R/YyyR6KHs//YtoySvb0g/n75C3JVP0CFnLdtTEUAHdkrl5vVDuKToW73wTmJTpugwAIWExAbPHfcWsFas9ulWXJpEiBXNdt3BQDRH+t209yVE/Ozxvd7Ke2OjJ78/qgVtTv3rqkx26/mIj+cuLf9OY3i0zZQKm23MESTkz/rlxrbGNnsLBwVw8oAO7IXL0+pFwETS0IpxteMOE2CNiGgCgEMjsRHhaqnBS5ZOGbvppKy16Fl/o3V7x8irdIbyLHSn9bsIXe5s2dh476xgSytzIF4v2OJ9Lo/T3m7j8JRA6eygwFwBMdvjeTjwM+heOAXijhNgiAgDcCMTkiqAXPULRueBOJy2px55uP9zKcOnORxLHPfrZEOW/FLlrIthysXJ7wVs5guf8xH/+7C8f/PDYnFACPeIgu8SGAhnVy0GWsAnghhdsgAAIgYA8COdgauBz/i0nXZxbcHrWwvhQ44+aFcTTvH2mWCCMSXjDhNgiAAAjYhoD02Rj8vTcHFADvjKjdKewiVYEJQUAABEDAFgTQZ6trBigAKjhBm1QBCUFAAARAwAYEMGurvhGgAKhgJetJLRIxC6ACFYKAAAiAgF8JtODpf+mzId4JQAHwzkgJcdcp7ANQiQrBQAAEQMBvBO7Ckq1q9lAAVKJqcjqdcsGhhEpaCAYCIAACvicgfXTT03hZU0seCoBKUpE8pdQSywAqaSEYCIAACPiegPTR0ldD1BGAAqCOkxKqw0nsA9CAC0FBAARAwKcE0Edrww0FQAOvxmfSqVgy1EsNyBAUBEAABHxCQPpm6aMh6glAAVDPikIog+47jvUlDcgQFARAAAR8QqAz983SR0PUE4ACoJ6VElIeMkDTCA3BQQAEQMBCAjLwS98M0UbAu2sqbekFfeg4nmZqyicCFueFGhD0jY0KBgyB4oXz0F1NKinugMXRThy7BA4PD1O8AcYfP0vL1u5jV8A7aPve4wFTJxRUPYFmpzOoKJZn1QO7GhLOgDQjI1qQL5QGVYjUERNRQCCwCeSMjqBW7M2uQY2SVKxQHsofG02JZy8p3uxWbT7E3uz+pbMXfOeDvVKZgvT6oFbK4K+G7Npt8fTKF/No6Zp9aoIjTIAQGLkrGae0dLQVFAAd0GSl6fZakXQsAi4CdeBDlAAkIG/YL/2vOXVpXZ2iIt1PHKakptGUhVtp2NcLaR+7t7VKQkNDlIH/sW4NKSxM+2zc9CXbacAbv9O5i8lWFRHp+ohAoZQMWrIumcKw/q+ZeNgzIY1f0xzL4RGkuzkTFkKr82jveByODtUPQAKDujagCe91p9pVilG4l8E2LDSUqpUvQg93rqfU9K/1+02vcZ6cUTTu3a7U466aJIqAHqnIMwftm1Wm+Sv/pdPnLutJAnFsQqDX0TS69Sx2/+tpDswA6KHGcQ5FhVDLmlE6YyMaCNifgAyuI4Z2oF4daukurMwGPPzab5ScYs4GrTBWvKd88iA1q1tWd5myRjyQcJqa9f2WTp6+mPUyPgcQgQUbkqhEEnb/62kyvMLqocZx5IFrDpOTOukhWiAQeOvxOwwN/lLHu1tUpc9e6GBadd976k7TBn8plGwYHPdOV68zG6ZVAAmZSkD6YAz++pFCAdDPjvolmPNWY6AIiAoClhDockd1epTX182Q7nfWpAFd6htOqkGNEtT/6tKC4cSyJNCoZinqd2/dLFfwMVAIoA821lJQAAzwq3cunapfwNqTAYSIakMC0VHh9OZjd5hasv/jDYT58uQwlOawR1sbiu8p8vMPNaVcMTjZ44mR3e5J3yt9MEQ/ASgA+tkpMfsdwSyAQYSIbjMC8pZdtFBuU0sVmysHPdnzNt1p1qtWnBrym7pVUjBfTpKZCkjgEEDfa7ytoAAYZNj2ZBoVxwYUgxQR3U4E7mtdw5LiGEm3XdPKlpQpa6LtfZBH1vzwWT8B6XOl74UYIwAFwBg/xSxw76OpBlNBdBCwB4Fi/OZ/S+WilhSmZFws1ahQRFfabW6toCuelkiNa5cmWf6A2J+A9LkYvIy3ExgaZ0hdjqVTLJRRE0giCX8TqFKusKVFqKoz/TLF81laLkk8gk0Hl2AlBWJvAnnSMpQ+196lDIzSQQEwoZ1i0jOoK2YBTCCJJPxNoGhBc9f+s9cnTsfegty8OS9ntG826MUVsLb+2Xngu3YC3djwj/S5EOMEoAAYZ6ikINaoojLwUJqEE8n4iUB0jghLc46J0p5+jI8Gf6m4+DqA2JdAJHex0tdCzCEABcAcjiT2qLvjwTSJJpLxF4GjJ89bmvXRU9rTP554gdJ99MZ35IT28lkKDIlfR0D6WOlrIeYQgAJgDkcllf+xYaBoH3VUJhYbSYHAfwQOHzvz32crPhw6oj19GfyP6VAc9JQ/4cQ5PdEQxwcEpG8dkIAN12aihgJgIs0CrJn2PALDFCYiRVI+JrB+RwKdOnPJklyTklNp+YYDutL+e9NBXfG0RNrPfgGsngHRUh6EvZ7AA/z2L30sxDwCUADMY6mk1O9IKuWEDmAyVSTnKwJpvMN69l87Lclu8eq9dF6n+11x32u1+CIPq+sQrOlLn/owTK+b3rxQAExGmi81g/pgmspkqkjOlwQ+H7/CkjX3EWOX667GrD930pnz1rrtnThno+7yIaK1BHpznyp9K8RcAlAAzOWppPYQzwLALoAFYJGkTwhs/vco/WLyYDh3xS5atnaf7vKfvZBEH//0l+743iJOXbSV1m1P8BYM9/1AQM79PwST65aQhwJgAdbcfEqlL2YBLCCLJH1FYOgns2n3wVOmZJdw/Bw99vY0w2mN/GUl7YtPNJxO9gQuXU6h10YuyH4Z321CQGz+ixIAMZ8AFADzmSop9uKHFlNWFsFFspYTSDx7mbo+N55OnrloKK9z/Obe/fkJZMbxustJqdR9yATd+whcVSSDbXcMfHMK7T5kjrLjKg9c009A+tBeWPvXD9BLTCgAXgDpvS2Wqp48BIMVevkhnv8J7Nx/gpr3/Za27TmmqzB7eFBt8fAoWrstXld8V5G27D5GfV/5lUQZMENe+3IB/b5gqxlJIQ0LCAw+nAqrfxZwzUwyJD50KOZWMmmY/F8OA9xdPZJ2xEDPMhktkvMhAbGO99SDjemx7o0oRoWlQDnu9/Wv/9D7PyzljXtJlpS0TtViNP7dbhSn03SxTPs/yssSv87bbEn5kKhxAhUvZdDUTUlw+mMcpdsUoAC4RWPOjb/zhFKvyr6xY25OiZEKCLgmUDh/Tura5mZq17QS1ateQnGekxkyNTWd1mw7TDOW7qBJczfR4WNnM29Z9r9Qvpz08oDm9GD7WhQWpl7JnrN8F738+Tzavve4ZWVDwsYJjNmeTA3P4ky1cZLuU4AC4J6NaXceuymC5uUPMy09JAQCdiBQMF8MFYiNUQwHnTh9gfzlCqNC6QL0UKc61L5ZZSpTzLXXwBNsTngW2zcYO2M9LV9/wA74UAYPBFonptPnu5I9hMAtMwhAATCDopc0DkWF0J03R1FyiJeAuA0CIGCIQLkS+ahkXF4Sr4bhPCtw5OQ5ZTZC3vb9paAYqpADI4vDn5kbk6lkEt7+rW7+cKszQPpEJZL4HCsfC/y6GHDjeQABKwnsOZRI8gcJXAJiSA2Dv2/aT/3CmW/KE7S5DIyHF6ugbVxUDARAwBQC4unvEe4rIb4hAAXAN5yVoyzPHjTn6JKPioxsQAAEQMCnBJ7hPlKOUEN8QwAKgG84K7ncfSKNGmBXqw+JIysQAIFAIVCf+8Z7uI+E+I4AFADfsVZyGrY3lXJAwfUxdWQHAiBgZwJRvEPzTe4bIb4lAAXAt7ypNO9sffwQHnQfY0d2IAACNibw+OE0pW+0cRGDsmhQAPzQrOIoqNpFHHHxA3pkCQIgYDMCVS9mUF9s/PNLq0AB8AN2gf7mnhQKI6wF+AE/sgQBELAJAfSF/m0IKAB+4n9F68UsgJ/wI1sQAAEbEMBsqH8bAQqAH/k/djgF615+5I+sQQAE/EcA+6H8xz4zZygAmST88F9OA7y1BxsC/YAeWYIACPiZgOz6x4ko/zYCFAD/8qd659Lp4QScffVzMyB7EAABHxLoxxuh5dw/xL8EoAD4l7+S+5N8LBCnAmzQECgCCICA5QRk/9NTh/DSYzloFRlAAVAByeogEWwE44N/UygaJjCtRo30QQAE/EhA+rgPua+TPg/ifwJwT+f/NlBKUO5yBr14II1eLoMmsUmToBhuCOTPE011qhanooVzU/48MZR49hIdOXGO1mw7TCcSL7qJhcsgQPTCgVQqdxlT/3Z5FjDa2KUluBz3H0ulJbEhND9fmI1KhaKAwBUC97epQX061qZGNUtRWNiNk4fp/Hb3z+ZD9NP0dTR2xnqS7xAQyCTQMjGduh7D1H8mDzv8D4kPHYpfqR1a4moZEsNDqGONSDoWEWKjUqEoTiZQp2ox+vT5DnRzxTjVGHbsO05PvjeD/lq3X3UcBAxeAuLm949NyZQvFcONnVr5RjXeTqVzYFnkB/LubhwNdGDT27LK3dreTLO/fEjT4C8VqVSmEP0xohf171zPlvVCoXxL4F22fIrB37fM1eQGBUANJR+HufVsGg08DCXAx9iRXTYCMuX/zav3UFSkvpXC8PBQ+vDZu2hAl/rZUsZXJxEYGJ9Kt53Bur8d2xwKgB1bhcv0JHvHaoIfjU1bJ/iLVbtKMfr8hY6mVPSdwW3o9nplTUkLiQQWgcZn0uhJHPmzbaNBAbBp04SwoyA5GlgiCWtmNm2ioC7Wx0PaUY4ofW/+2cHIhsFPhrSncBcbB7OHxffgIVCc+64P/00l6csg9iQABcCe7aKUKm9aBn2+KwXmMm3cRsFYtM6tqlGtysVMrVq5Evmp7z11TE0TidmXgJj4/XxXMkkfBrEvASgA9m0bpWRVLqbTG3tTbF5KFC+YCPTqUNuS6liVriWFRaKGCLzOfZZY/IPYmwAUAHu3j1K6TifSqOdRbAoMgKYK+CLmyRlFjWuXtqQecoywZFysJWkjUfsQeOBoGt3NfRbE/gSgANi/jZQSigWt2uexkzZAmitgi1mzUlGKCLfOEFXdasUDlg0K7p2A9FEvHsCMpXdS9ggBBcAe7eC1FOE8mzaC9wMUTca0mldYCKCbQNFCuXXHVROxaEFr01dTBoSxhoD0TdJHSV8FCQwCUAACo52UUoo1rW93pFAubKwJoFYLrKLmYzv/VorV6VtZdqTtnoD0Sd/sSCbpoyCBQwAKQOC0lVLSCpfS6bNdqdCyA6zdAqW4J09b68znhMXpBwrnYCpnGB/zG8FHlitewuAfaO0KBSDQWozLK5YC39iHdbYAbDrbFzn++FlLy5hw/Jyl6SNx3xN4Yy8s/fmeujk5QgEwh6PPU+l8PI0GwVywz7kHe4brtyfQ5SRrTpxksA/4vzcdDHaEjqqfmCy/j/siSGASgAIQmO2mlHow//g64rhNALeg/Yp+8XIKLV69x5KCrd56mI6ePG9J2kjU9wQ6nkyjp/AS4nvwJuYIBcBEmP5I6m2efqt/FscD/cE+WPP8YcoaS6r2w+/WpGtJYZGoRwL1zqXT23usmSnymDFumkoACoCpOH2fWARPq37BR28qw+qW7+EHaY6z/txJKzYcMLV2W3cfo7Ez15uaJhLzD4FKbJ30i50pJH0PJLAJQAEI7PZTSp+Hj+D8sD2Zyl3GTEAQNKctqjD43el07kKSKWVJSk6lx4dPI4wXpuD0ayLlLmfQ6O0pFIujyH5tB7MyhwJgFkk/p5M/lX+Y21KoJLwH+rklgiP77XuPU//XfqP0dONveU+88wet2nI4OMA4uBbimXT0tmSSvgYSHASgAARHOyq1KMJGOMbwTEAcrAUGUav6ryozeSmg+/MTdM8EyGmCfq9OpvGzNvqvEsjZFAKZfYv8hwQPASgAwdOWSk3EB7dM0RXADzXIWtY/1ZH9AC37f0d/rduvqQCr+Y3/jgHf06S5mzXFQ2D7Ebgyu5hMMgMACS4CIfGhQ9GqwdWmSm12RofQg1Uj6XRYSBDWDlXyB4G2t1Wg3p3qUIt65Sg6R8QNRZC1/sWr99JPf6yjaYu33XAfFwKPQF5e6/+RlxZl4x8k+AhAAQi+Nv2vRptzhlLvyhF0HkrAf0zwwTiB6KhwEte+cezYp0DeGEo8e4nEwt+mXUfowiVYqDRO2B4piH1/mU2scQGDvz1axPxSQAEwn6mtUtzESsDDrARgJsBWzYLCgICtCcib/ygM/rZuIzMKhz0AZlC0cRqivf+0NRl7AmzcRigaCNiJgOwfkj4Db/52ahVrygIFwBqutkpVvHSN4+M74q8bAgIgAALuCEgfMZbX/OHZzx2h4LoOBSC42tNtbcqwAY9xrNWXTsJ6nltIuAECDiZQinf5Sx9RFgbFHPMUQAFwTFMTFRPtfmsK3QS/3Q5qdVQVBLwTKH8pXRn8pY+AOIcAFADntLVS00K8vvczLwdUv4AfusOaHtUFAZcEqvERP5n2l74B4iwCUACc1d5KbfOxKU+xGNgIXgQd2PqoMghcI9CQ+4Ax/EIgfQLEeQSgADivzZUayxnfUTuSqfPxNIcSQLVBwNkE7uXf/nfcB+RGF+DYBwEKgGObniiclf6396bQk4fh19vBjwGq7kACg/k3P5x/+9IHQJxLAAqAc9v+v5o/wp3BB7tT6P/bu9sYuaoyDuBndnbbUlpaKEKBBpEYCiFoIBj0g8QEowgRjBESY6LRVKJ8M7773UQxkURjNMZIDCEY3hJqBE0kMfhBPyjGQqOQRgSxBaRvtpTuzu6Mz5ktC5tuQ/d0dnfO3N9NNp2Z7pk59/fM3fOfO+feu8ofgzkTNwiMosBEXJP5e7Gt3y70j2J5F71OAsCiyUazwUf3zqS7Yl5APgOYhQCB0RPI23Y+te9Nsa1bCGQBAcD7YE7g6kPd9MudnZSPB7YQIDA6AnmbvnfnVMrbuIXA6wICwOsS/u0L5JOA3Bd/KPLsYAsBAvULXBPbct6mL46TgVkIvFlAAHizhtt9gXxIUP46YNsekwO9JQjULLBtz0zs9neYX801XMq+CwBLqVvxc+c3xlf/PZ1+uGsqnW5nQMWV1PUmCuRt9ge7OrENd3zP28Q3wEmuswBwklBN/bUP7eumB56K3YdOH9zUt4D1rkzg4vga74Gdk+nD+0z2q6x0y95dAWDZyet7wfwH5cH4DtEflPpqp8fNEhDYm1XvU11bAeBUBRvSfm23Z5diQ2ptNesTmP3KruMru/pKt6I9FgBWlL++F8+Tiu6JS4ZucahgfcXT45EUyNti3ibztmkhsBgBAWAxWn63L3DV4W7a/uRk+tgr/uB4SxBYSYGbYxt8OObo5G3SQmCxAgLAYsX8fl8gzzL+7j876c44regZzh7oXUFgWQXyNvf92PbuiG0wX9jLQqBEQAAoUdNmTuCGOK3o9ien0nucYWzOxA0CSymQt7W8zd3olL5LydyI5xYAGlHmpV3J86Z66e6/d9JXXph2dbGlpfbsDRbIV+77cmxjeVvL25yFwKkKCACnKqh9X6CVeunzu6f7pxy97IjvI70tCAxS4NIjvf62dVtsY3lbsxAYhIAAMAhFzzEncHkM/g8+Nbs3YI2/U3MubhAoEVgdl+/Nn/ofiol+eduyEBikgAAwSE3P1RdoH9sbsH3HVMoXIrEQILB4gbzt/GpHJ+VP/XmbshAYtEBr99g3vLMGrer55gk88LZ2uuPCiXSwPe9hdwgQWEBgQxxd+7XnO+kT/3WY7QI8HhqggD0AA8T0VAsL5D9kj+6YTNfHdQUsBAicWCBvI4/EtmLwP7GR/xmcgD0Ag7P0TCch8PuNY+k7F46nZ9fInifB5VcaInDR0V76Znzq/8ABIbkhJR+K1RQAhqIMzerEdCuluzePpx+dP54O+VqgWcW3tvME1sde/tt3d9KnX5xxCO08GXeWQ0AAWA5lr7GgwP7xVrpzy3i6/5x28rlnQSIPjqhA3v91y8sz6Usxw//MadOwRrTMQ79aAsDQl2j0O/jMaa307bdPpD+d4WuB0a+2NXxvzO7/1vPTaavD+rwZVlhAAFjhAnj5NwR+d2Y+WqCdnlstCLyh4taoCFwYV+37egz8H9xvdv+o1LT29RAAaq/giPU/zw94KA4b/HHMD9i9Ku5YCFQucH6ctveLcSz/x+NomHw6XwuBYREQAIalEvoxT6DTaqX7zhlLP4kg8PKEIDAPx50qBM7p9NIXYuC/9eVumogz+lkIDJuAADBsFdGfeQKTEQTuPbedfnpeO+0VBObZuDOcApti4L9tz0z65EszKZ/K10JgWAUEgGGtjH7NE3htrJXuiSDwswgC+egBC4FhE8iz+bfFwP+pGPhP6xr4h60++nO8gABwvIlHhljgSASB++KwwV9sbpsjMMR1alLX8nf8n4nj+G+Nw/rWGvibVPrq11UAqL6EzVyBfN6A32xqp59HEHjydEcNNPNdsLJrfcWr3fS5GPiv3zuTvANXthZevUxAAChz02qIBP68fqwfBB6LwwgtBJZa4Lo4jC8P/Fcfcvqqpbb2/EsrML60T+/ZCSy9QP5DnH+eXTOT7oo9Ag/HYYRHTRNYevgGvcKa+Er/5jiM77Mx8L/jqIG/QaUf6VW1B2Cky9vMlTvYbqXtZ4+l+yMIPL3WztlmvgsGs9b5bH23xMB/0yvdtGHGxL7BqHqWYREQAIalEvqxJAI7Yn5AnjT4601jKU8gtBB4K4E8ke/Gvd3+pL53xff8FgKjKiAAjGplrdc8gTz45xCQ9wr8bZ29AvNw3OkLvPvw7Kf9PPibze9N0QQBAaAJVbaO8wTyxYcePns8PRKBwOmG59E07k4+hO+GGPBvfmU6XfKaXfyNewM0fIUFgIa/AZq++nlvwCNntdNvzxpLe1x7oBFvh/Ni0M+H7n1kfzflT/0WAk0VEACaWnnrfZzAExEGHo0gkM8v4PoDx/FU/UA+L39/0N/XTVcZ9Kuupc4PTkAAGJylZxoRgV5qpb+sb6XHNrbT4xvH0q74ysBSn8A7Y5f+tQe66boDjtmvr3p6vBwCAsByKHuNqgXyVwN/iCDw+IZ2+uMZrXQ4DjO0DJ/AujhM733/i0H/4Ex6fwz8eVe/hQCBEwsIACe28T8EjhOYib0DT8Tegcc3RCCIPQT/WCsMHIe0jA9cFsfp58H+2oOxa/9QL7WTQX8Z+b1U5QICQOUF1P2VFchXJvzruggF69r9YPBU3M6XMLYMXiBfWveKw70Y6Lvpyvge/8q4na/AZyFAoExAAChz04rAggKdGPx3nj67lyCHgjyXYJ/LFy9o9VYPboqJe1flAf/wTP/T/eWv9tJEhAALAQKDERAABuPoWQicUOCF1a04JXH+GUtPnzaWnonb/1rTSg5AmyXLp2W6KM6vf8mRlC59Lf/bTZce6aULJg32J3xT+Q8CAxAQAAaA6CkILFYgf02wqx8KIhgcCwXPRVDYEz+jGgzyQL85JuZddLQXg3wvbY3Bfmt8qs+z9fPufQsBAssr4GqAy+vt1Qj0BfKAl3dpX/5qvjszp5InGb64OqW816D/E0cg/Cdu5598/6VVKaa5Deccg1b07NyplLbEJ/f86T3/bIkBP9/PP5snk0l6c5V2g8DKCwgAK18DPSAwJ5BnsV8QA2UePK+Ze/SNG3nvwMGYU7B/IqU8AfFAbMEH+v/GY2+6f6id0nR85J6MrNCJ6yB0Wr00FXsdOvHY1LHHpuKxvKzqtdJEXABnVdydiBfo/9u/nT+ZpzQej62PjLIxJtxtnE79iXezt4/d78w+tiH+P3/KtxAgUIeAAFBHnfSSQF8gD7B55vuZMRDnfQEWAgQIlAoI7KVy2hEgQIAAgYoFBICKi6frBAgQIECgVEAAKJXTjgABAgQIVCwgAFRcPF0nQIAAAQKlAgJAqZx2BAgQIECgYgEBoOLi6ToBAgQIECgVEABK5bQjQIAAAQIVCwgAFRdP1wkQIECAQKmAAFAqpx0BAgQIEKhYQACouHi6ToAAAQIESgUEgFI57QgQIECAQMUCAkDFxdN1AgQIECBQKiAAlMppR4AAAQIEKhYQACounq4TIECAAIFSAQGgVE47AgQIECBQsYAAUHHxdJ0AAQIECJQKCAClctoRIECAAIGKBQSAioun6wQIECBAoFRAACiV044AAQIECFQsIABUXDxdJ0CAAAECpQICQKmcdgQIECBAoGIBAaDi4uk6AQIECBAoFRAASuW0I0CAAAECFQsIABUXT9cJECBAgECpgABQKqcdAQIECBCoWEAAqLh4uk6AAAECBEoFBIBSOe0IECBAgEDFAgJAxcXTdQIECBAgUCogAJTKaUeAAAECBCoWEAAqLp6uEyBAgACBUgEBoFROOwIECBAgULGAAFBx8XSdAAECBAiUCggApXLaESBAgACBigUEgIqLp+sECBAgQKBUQAAoldOOAAECBAhULCAAVFw8XSdAgAABAqUCAkCpnHYECBAgQKBiAQGg4uLpOgECBAgQKBUQAErltCNAgAABAhULCAAVF0/XCRAgQIBAqYAAUCqnHQECBAgQqFhAAKi4eLpOgAABAgRKBQSAUjntCBAgQIBAxQICQMXF03UCBAgQIFAqIACUymlHgAABAgQqFhAAKi6erhMgQIAAgVIBAaBUTjsCBAgQIFCxgABQcfF0nQABAgQIlAoIAKVy2hEgQIAAgYoFBICKi6frBAgQIECgVEAAKJXTjgABAgQIVCwgAFRcPF0nQIAAAQKlAgJAqZx2BAgQIECgYgEBoOLi6ToBAgQIECgVEABK5bQjQIAAAQIVCwgAFRdP1wkQIECAQKmAAFAqpx0BAgQIEKhYQACouHi6ToAAAQIESgUEgFI57QgQIECAQMUCAkDFxdN1AgQIECBQKiAAlMppR4AAAQIEKhYQACounq4TIECAAIFSAQGgVE47AgQIECBQscD/ASs78e5sJYwCAAAAAElFTkSuQmCC;labelPosition=right;align=left;" parent="1" vertex="1">
          <mxGeometry x="613" y="610" width="82" height="82" as="geometry" />
        </mxCell>
      </root>
    </mxGraphModel>
  </diagram>
</mxfile>
